<svg width="105" height="37" viewBox="0 0 105 37" fill="none" xmlns="http://www.w3.org/2000/svg">
<path d="M3.89999 27.3627C3.44399 27.3627 2.97599 27.2427 2.49599 27.0027C2.03999 26.7867 1.65599 26.4387 1.34399 25.9587C1.00799 25.4787 0.839985 24.8667 0.839985 24.1227C0.839985 23.3307 1.03199 22.4427 1.41599 21.4587C1.79999 20.4747 2.31599 19.4907 2.96399 18.5067C3.63599 17.5227 4.40399 16.6227 5.26799 15.8067C6.15599 14.9907 7.09199 14.3307 8.07599 13.8267C9.05999 13.3227 10.056 13.0707 11.064 13.0707C11.616 13.0707 12.048 13.1667 12.36 13.3587C12.672 13.5267 12.828 13.8147 12.828 14.2227C12.828 14.3427 12.804 14.4867 12.756 14.6547C12.708 14.7987 12.588 14.9307 12.396 15.0507C12.3 14.9067 12.132 14.8107 11.892 14.7627C11.652 14.6907 11.4 14.6547 11.136 14.6547C10.344 14.6547 9.58799 14.8827 8.86799 15.3387C8.14799 15.7707 7.48799 16.3347 6.88799 17.0307C6.28799 17.7267 5.75999 18.4827 5.30399 19.2987C4.87199 20.1147 4.53599 20.9067 4.29599 21.6747C4.05599 22.4187 3.93599 23.0667 3.93599 23.6187C3.93599 24.0747 4.03199 24.4467 4.22399 24.7347C4.41599 24.9987 4.70399 25.1307 5.08799 25.1307C5.73599 25.1307 6.50399 24.7587 7.39199 24.0147C8.30399 23.2467 9.22799 22.1547 10.164 20.7387C11.124 19.2987 11.988 17.5827 12.756 15.5907C13.284 14.2227 13.836 12.8307 14.412 11.4147C14.988 9.97474 15.564 8.59474 16.14 7.27475C16.716 5.95475 17.28 4.77874 17.832 3.74674C18.408 2.71474 18.948 1.89874 19.452 1.29875C19.98 0.674745 20.46 0.362744 20.892 0.362744C21.156 0.362744 21.384 0.470744 21.576 0.686744C21.792 0.878745 21.9 1.13074 21.9 1.44274C21.9 1.85074 21.696 2.51074 21.288 3.42274C20.904 4.31074 20.4 5.37874 19.776 6.62675C19.176 7.87474 18.516 9.23074 17.796 10.6947C17.1 12.1347 16.44 13.6227 15.816 15.1587C15.216 16.6707 14.712 18.1707 14.304 19.6587C13.92 21.1227 13.728 22.5027 13.728 23.7987C13.728 24.3747 13.776 24.7707 13.872 24.9867C13.992 25.1787 14.184 25.2747 14.448 25.2747C14.976 25.2747 15.564 25.0707 16.212 24.6627C16.86 24.2547 17.52 23.6547 18.192 22.8627C18.864 22.0467 19.476 21.0747 20.028 19.9467L20.712 20.5227C20.184 21.8427 19.512 23.0067 18.696 24.0147C17.88 25.0227 17.004 25.8027 16.068 26.3547C15.132 26.9307 14.208 27.2187 13.296 27.2187C12.312 27.2187 11.628 26.9067 11.244 26.2827C10.86 25.6587 10.668 24.9267 10.668 24.0867C10.668 23.7027 10.692 23.3187 10.74 22.9347C10.812 22.5267 10.884 22.1307 10.956 21.7467C10.212 22.8267 9.41999 23.7987 8.57999 24.6627C7.76399 25.5027 6.95999 26.1627 6.16799 26.6427C5.37599 27.1227 4.61999 27.3627 3.89999 27.3627ZM14.2756 36.3627C13.5796 36.3627 13.0276 36.1587 12.6196 35.7507C12.2116 35.3667 12.0076 34.8627 12.0076 34.2387C12.0076 33.3027 12.4396 32.3427 13.3036 31.3587C14.1676 30.3747 15.2716 29.4747 16.6156 28.6587C17.0236 28.4427 17.4316 28.2267 17.8396 28.0107C18.2476 27.8187 18.6676 27.6387 19.0996 27.4707C19.5076 26.4867 19.8796 25.3827 20.2156 24.1587C20.5756 22.9347 20.8876 21.6027 21.1516 20.1627C20.9596 20.4987 20.7436 20.8347 20.5036 21.1707C20.2876 21.5067 20.0836 21.8547 19.8916 22.2147L19.2796 21.2427C19.7116 20.4267 20.0956 19.5867 20.4316 18.7227C20.7676 17.8347 21.0916 17.0187 21.4036 16.2747C21.7156 15.5067 22.0396 14.8827 22.3756 14.4027C22.7116 13.9227 23.1076 13.6827 23.5636 13.6827C23.8996 13.6827 24.1636 13.8147 24.3556 14.0787C24.5716 14.3187 24.6796 14.6307 24.6796 15.0147C24.6796 15.2787 24.6196 15.7707 24.4996 16.4907C24.3796 17.1867 24.2116 18.0507 23.9956 19.0827C23.7796 20.1147 23.5036 21.2307 23.1676 22.4307C22.8556 23.6307 22.4956 24.8427 22.0876 26.0667C22.7836 25.6827 23.4556 25.2627 24.1036 24.8067C24.7756 24.3507 25.4356 23.7747 26.0836 23.0787C26.7556 22.3587 27.4276 21.4347 28.0996 20.3067L28.7476 20.7387C28.0036 22.2747 27.2116 23.4627 26.3716 24.3027C25.5316 25.1427 24.6916 25.8027 23.8516 26.2827C23.0356 26.7387 22.2556 27.2067 21.5116 27.6867C20.9836 29.1267 20.3476 30.5067 19.6036 31.8267C18.8836 33.1707 18.0796 34.2627 17.1916 35.1027C16.2796 35.9427 15.3076 36.3627 14.2756 36.3627ZM13.8796 34.6347C14.3116 34.6347 14.9356 34.1907 15.7516 33.3027C16.5676 32.4147 17.4076 31.0947 18.2716 29.3427C16.6636 30.1587 15.4636 30.9747 14.6716 31.7907C13.8556 32.6307 13.4476 33.3747 13.4476 34.0227C13.4476 34.2627 13.4956 34.4187 13.5916 34.4907C13.6636 34.5867 13.7596 34.6347 13.8796 34.6347ZM24.1036 11.0187C23.6476 11.0187 23.2276 10.9107 22.8436 10.6947C22.4836 10.4547 22.3036 10.1067 22.3036 9.65074C22.3036 9.24274 22.4596 8.88274 22.7716 8.57074C23.0836 8.23474 23.4676 7.97074 23.9236 7.77875C24.3796 7.58675 24.8236 7.49074 25.2556 7.49074C25.6636 7.49074 26.0116 7.59874 26.2996 7.81474C26.5876 8.00675 26.7316 8.31875 26.7316 8.75074C26.7316 9.35074 26.4676 9.87874 25.9396 10.3347C25.4116 10.7907 24.7996 11.0187 24.1036 11.0187ZM30.2554 21.1707C30.4234 20.6427 30.7594 20.2227 31.2634 19.9107C31.7674 19.5987 32.3314 19.3707 32.9554 19.2267C33.5794 19.0827 34.1674 18.9987 34.7194 18.9747C35.2714 18.9267 35.6914 18.9027 35.9794 18.9027C36.2914 18.9027 36.8074 18.9147 37.5274 18.9387C38.2474 18.9627 39.0274 18.9867 39.8674 19.0107C40.7074 19.0347 41.4874 19.0587 42.2074 19.0827C42.9274 19.1067 43.4434 19.1307 43.7554 19.1547C43.5154 19.7067 42.9634 20.1747 42.0994 20.5587C41.2594 20.9187 40.3474 21.0987 39.3634 21.0987C38.8594 21.0987 38.2114 21.0627 37.4194 20.9907C36.6274 20.9187 35.7754 20.8827 34.8634 20.8827C34.2634 20.8827 33.6394 20.9067 32.9914 20.9547C32.3434 20.9787 31.7674 21.0147 31.2634 21.0627C30.7834 21.1107 30.4474 21.1467 30.2554 21.1707ZM50.5895 28.2987C49.3415 28.2987 48.3095 27.9027 47.4935 27.1107C46.7015 26.3427 46.3055 25.1547 46.3055 23.5467C46.3055 22.3707 46.5335 21.2187 46.9895 20.0907C47.4455 18.9627 48.0575 17.9547 48.8255 17.0667C49.5935 16.1547 50.4455 15.4347 51.3815 14.9067C52.3415 14.3787 53.3135 14.1147 54.2975 14.1147C55.3055 14.1147 56.0255 14.3667 56.4575 14.8707C56.9135 15.3747 57.1415 15.9627 57.1415 16.6347C57.1415 17.3067 56.9735 17.9667 56.6375 18.6147C56.3255 19.2387 55.8935 19.5507 55.3415 19.5507C54.8855 19.5507 54.5135 19.3227 54.2255 18.8667C54.4655 18.6987 54.7175 18.3867 54.9815 17.9307C55.2455 17.4747 55.3775 16.8867 55.3775 16.1667C55.3775 15.9747 55.3295 15.8307 55.2335 15.7347C55.1375 15.6147 54.9575 15.5547 54.6935 15.5547C54.0935 15.5547 53.4575 15.8307 52.7855 16.3827C52.1375 16.9107 51.5255 17.6067 50.9495 18.4707C50.3975 19.3107 49.9415 20.2107 49.5815 21.1707C49.2455 22.1067 49.0775 22.9707 49.0775 23.7627C49.0775 24.4347 49.2455 25.0587 49.5815 25.6347C49.9415 26.1867 50.6255 26.4627 51.6335 26.4627C52.5455 26.4627 53.4935 26.1987 54.4775 25.6707C55.4615 25.1427 56.3855 24.4107 57.2495 23.4747C58.1135 22.5147 58.8095 21.3747 59.3375 20.0547L60.0575 20.7027C59.4815 22.1667 58.6775 23.4747 57.6455 24.6267C56.6375 25.7547 55.5095 26.6427 54.2615 27.2907C53.0375 27.9627 51.8135 28.2987 50.5895 28.2987ZM60.1657 27.6507C59.6377 27.6507 59.2537 27.2427 59.0137 26.4267C58.7977 25.6107 58.6897 24.6627 58.6897 23.5827C58.6897 22.4787 58.8697 21.1467 59.2297 19.5867C59.6137 18.0267 60.1177 16.3827 60.7417 14.6547C61.3897 12.9267 62.0977 11.2347 62.8657 9.57874C63.6577 7.92274 64.4617 6.42274 65.2777 5.07874C66.1177 3.71074 66.9097 2.61874 67.6537 1.80275C68.4217 0.986744 69.0937 0.578744 69.6697 0.578744C70.1737 0.578744 70.5577 0.854744 70.8217 1.40674C71.0857 1.95874 71.2177 2.53474 71.2177 3.13475C71.2177 3.78274 71.0617 4.58674 70.7497 5.54674C70.4617 6.48274 70.0537 7.49075 69.5257 8.57074C68.9977 9.65074 68.3737 10.7187 67.6537 11.7747C66.9577 12.8067 66.1897 13.7547 65.3497 14.6187C64.5337 15.4827 63.6817 16.1787 62.7937 16.7067C62.4817 17.5227 62.2297 18.2907 62.0377 19.0107C61.8697 19.7067 61.7497 20.3667 61.6777 20.9907C61.6057 21.6147 61.5697 22.2267 61.5697 22.8267C61.5697 22.9467 61.5697 23.0787 61.5697 23.2227C61.5937 23.3427 61.6057 23.4627 61.6057 23.5827C61.7017 23.4387 61.8577 23.0667 62.0737 22.4667C62.2897 21.8667 62.5777 21.1707 62.9377 20.3787C63.3217 19.5627 63.7897 18.7707 64.3417 18.0027C64.8937 17.2107 65.5417 16.5627 66.2857 16.0587C67.0297 15.5307 67.8817 15.2667 68.8417 15.2667C69.6577 15.2667 70.2937 15.4587 70.7497 15.8427C71.2057 16.2027 71.5297 16.6587 71.7217 17.2107C71.9137 17.7387 72.0097 18.2787 72.0097 18.8307C72.0097 19.5987 71.8777 20.3187 71.6137 20.9907C71.3737 21.6627 71.1217 22.2987 70.8577 22.8987C70.6177 23.4747 70.4977 24.0267 70.4977 24.5547C70.4977 24.9867 70.5937 25.2867 70.7857 25.4547C70.9777 25.6227 71.2057 25.7067 71.4697 25.7067C71.9977 25.7067 72.6097 25.4427 73.3057 24.9147C74.0257 24.3867 74.7337 23.6907 75.4297 22.8267C76.1497 21.9387 76.7617 20.9667 77.2657 19.9107L77.8417 20.5227C77.2897 21.7227 76.6417 22.8267 75.8977 23.8347C75.1537 24.8427 74.3377 25.6467 73.4497 26.2467C72.5617 26.8467 71.6017 27.1467 70.5697 27.1467C69.6577 27.1467 68.9617 26.9067 68.4817 26.4267C68.0017 25.9467 67.7617 25.3467 67.7617 24.6267C67.7617 24.1227 67.8457 23.5707 68.0137 22.9707C68.2057 22.3467 68.3857 21.7227 68.5537 21.0987C68.7217 20.4747 68.8057 19.9107 68.8057 19.4067C68.8057 18.8307 68.6737 18.4347 68.4097 18.2187C68.1697 18.0027 67.8697 17.8947 67.5097 17.8947C66.9097 17.8947 66.3697 18.1347 65.8897 18.6147C65.4097 19.0707 64.9777 19.6707 64.5937 20.4147C64.2097 21.1587 63.8497 21.9507 63.5137 22.7907C63.1777 23.6067 62.8417 24.3867 62.5057 25.1307C62.1697 25.8747 61.8097 26.4747 61.4257 26.9307C61.0657 27.4107 60.6457 27.6507 60.1657 27.6507ZM63.5497 14.4027C64.1737 13.8507 64.7737 13.1907 65.3497 12.4227C65.9257 11.6547 66.4537 10.8627 66.9337 10.0467C67.4377 9.20674 67.8697 8.40274 68.2297 7.63475C68.6137 6.84275 68.9137 6.13475 69.1297 5.51074C69.3457 4.88674 69.4657 4.40674 69.4897 4.07074C69.4897 4.04674 69.4897 4.03474 69.4897 4.03474C69.4897 4.01074 69.4897 3.98674 69.4897 3.96275C69.3457 3.96275 69.0337 4.26274 68.5537 4.86274C68.0977 5.43874 67.5577 6.23074 66.9337 7.23874C66.3337 8.22274 65.7217 9.33874 65.0977 10.5867C64.4977 11.8347 63.9817 13.1067 63.5497 14.4027ZM78.3148 27.9747C77.5228 27.9747 76.8388 27.7107 76.2628 27.1827C75.6628 26.6547 75.3628 25.8627 75.3628 24.8067C75.3628 23.9667 75.5548 23.0547 75.9388 22.0707C76.3228 21.0867 76.8508 20.1147 77.5228 19.1547C78.1948 18.1947 78.9628 17.3307 79.8268 16.5627C80.6908 15.7707 81.6148 15.1347 82.5988 14.6547C83.5828 14.1747 84.5668 13.9347 85.5508 13.9347C86.5828 13.9347 87.4588 14.1987 88.1788 14.7267C88.8988 15.2547 89.2588 15.9507 89.2588 16.8147C89.2588 17.4627 89.0308 17.9307 88.5748 18.2187C88.1188 18.5067 87.5788 18.5907 86.9548 18.4707C87.0028 18.2547 87.0388 18.0387 87.0628 17.8227C87.1108 17.6067 87.1348 17.3787 87.1348 17.1387C87.1348 16.6587 87.0388 16.2267 86.8468 15.8427C86.6548 15.4587 86.2468 15.2667 85.6228 15.2667C84.9508 15.2667 84.2668 15.4947 83.5708 15.9507C82.8748 16.4067 82.2028 17.0067 81.5548 17.7507C80.9308 18.4707 80.3668 19.2747 79.8628 20.1627C79.3588 21.0267 78.9628 21.8787 78.6748 22.7187C78.3868 23.5587 78.2428 24.3147 78.2428 24.9867C78.2428 25.7547 78.5188 26.1387 79.0708 26.1387C79.6228 26.1387 80.2348 25.8747 80.9068 25.3467C81.5788 24.7947 82.2508 24.1107 82.9228 23.2947C83.6188 22.4787 84.2788 21.6507 84.9028 20.8107C85.5268 19.9467 86.0668 19.2147 86.5228 18.6147C86.5948 18.4947 86.6908 18.4347 86.8108 18.4347C86.9068 18.4587 87.0868 18.5187 87.3508 18.6147C87.6388 18.6867 87.9028 18.8067 88.1428 18.9747C88.3828 19.1427 88.5028 19.3587 88.5028 19.6227C88.5028 19.8627 88.3948 20.1747 88.1788 20.5587C87.9868 20.9187 87.7468 21.3267 87.4588 21.7827C87.1948 22.2147 86.9548 22.6587 86.7388 23.1147C86.5468 23.5467 86.4508 23.9667 86.4508 24.3747C86.4508 24.6867 86.5348 24.9867 86.7028 25.2747C86.8708 25.5387 87.1468 25.6707 87.5308 25.6707C88.1068 25.6707 88.9108 25.2507 89.9428 24.4107C90.9988 23.5467 92.0668 22.0947 93.1468 20.0547L93.8308 20.7387C93.2548 22.0347 92.5588 23.1867 91.7428 24.1947C90.9508 25.1787 90.1108 25.9467 89.2228 26.4987C88.3348 27.0747 87.4348 27.3627 86.5228 27.3627C85.5388 27.3627 84.8068 27.0507 84.3268 26.4267C83.8468 25.8027 83.5828 25.1307 83.5348 24.4107C83.5348 24.3627 83.5348 24.3267 83.5348 24.3027C83.5348 24.2787 83.5348 24.2547 83.5348 24.2307C82.5748 25.3827 81.6868 26.2947 80.8708 26.9667C80.0788 27.6387 79.2268 27.9747 78.3148 27.9747ZM95.5709 27.9387C94.5149 27.9387 93.6629 27.6267 93.0149 27.0027C92.3669 26.3787 92.0429 25.4307 92.0429 24.1587C92.0429 23.1747 92.2229 21.9507 92.5829 20.4867C92.9669 19.0227 93.4469 17.5107 94.0229 15.9507C93.8549 15.9027 93.6509 15.8667 93.4109 15.8427C93.1949 15.7947 92.9789 15.7227 92.7629 15.6267V14.5107C93.1469 14.5587 93.4589 14.5947 93.6989 14.6187C93.9629 14.6427 94.2269 14.6667 94.4909 14.6907C94.9949 13.4187 95.5349 12.1947 96.1109 11.0187C96.7109 9.81874 97.2989 8.75074 97.8749 7.81474C98.4749 6.87874 99.0389 6.14674 99.5669 5.61875C100.095 5.06675 100.563 4.79075 100.971 4.79075C101.211 4.79075 101.439 4.88674 101.655 5.07874C101.871 5.24674 101.979 5.49874 101.979 5.83474C101.979 6.31474 101.727 6.99874 101.223 7.88674C100.743 8.77474 100.143 9.81874 99.4229 11.0187C98.7029 12.1947 98.0069 13.4547 97.3349 14.7987C97.5269 14.7987 97.7189 14.7987 97.9109 14.7987C98.1029 14.7987 98.2829 14.7987 98.4509 14.7987C99.5069 14.7987 100.455 14.7867 101.295 14.7627C102.159 14.7147 103.035 14.6427 103.923 14.5467V15.7347C102.603 15.8547 101.391 15.9507 100.287 16.0227C99.1829 16.0947 98.1269 16.1427 97.1189 16.1667C97.0469 16.1667 96.9749 16.1667 96.9029 16.1667C96.8309 16.1667 96.7589 16.1667 96.6869 16.1667C96.1829 17.3427 95.7389 18.5547 95.3549 19.8027C94.9949 21.0267 94.8149 22.2267 94.8149 23.4027C94.8149 24.3867 94.9709 25.0827 95.2829 25.4907C95.5949 25.8987 96.0869 26.1027 96.7589 26.1027C97.9589 26.1027 99.1829 25.5627 100.431 24.4827C101.703 23.3787 102.807 21.8907 103.743 20.0187L104.247 20.3787C103.623 21.7947 102.843 23.0787 101.907 24.2307C100.995 25.3827 99.9989 26.2827 98.9189 26.9307C97.8389 27.6027 96.7229 27.9387 95.5709 27.9387Z" fill="#FEAD00"/>
</svg>
